<?xml version="1.0" encoding="UTF-8" standalone="no"?>
<svg
   height="24px"
   viewBox="0 -960 960 960"
   width="24px"
   fill="#1f1f1f"
   version="1.1"
   id="svg1"
   sodipodi:docname="style_24dp_1F1F1F_FILL0_wght200_GRAD0_opsz24.svg"
   inkscape:version="1.4.2 (f4327f4, 2025-05-13)"
   xmlns:inkscape="http://www.inkscape.org/namespaces/inkscape"
   xmlns:sodipodi="http://sodipodi.sourceforge.net/DTD/sodipodi-0.dtd"
   xmlns="http://www.w3.org/2000/svg"
   xmlns:svg="http://www.w3.org/2000/svg">
  <defs
     id="defs1" />
  <sodipodi:namedview
     id="namedview1"
     pagecolor="#ffffff"
     bordercolor="#000000"
     borderopacity="0.25"
     inkscape:showpageshadow="2"
     inkscape:pageopacity="0.0"
     inkscape:pagecheckerboard="0"
     inkscape:deskcolor="#d1d1d1"
     inkscape:zoom="45.254834"
     inkscape:cx="9.8332037"
     inkscape:cy="12.783165"
     inkscape:window-width="1920"
     inkscape:window-height="1009"
     inkscape:window-x="-8"
     inkscape:window-y="-5"
     inkscape:window-maximized="1"
     inkscape:current-layer="layer2" />
  <g
     inkscape:groupmode="layer"
     id="layer3"
     inkscape:label="swatch_2"
     style="display:inline"
     inkscape:highlight-color="#ffb902"
     sodipodi:insensitive="true">
    <path
       style="display:inline;fill:#ffb902;fill-opacity:1;stroke-width:0;stroke-dasharray:none"
       d="m 295.7242,-140.20925 c -82.79029,-34.15351 -150.78904,-62.19687 -151.10835,-62.31862 -0.45639,-0.17406 206.36361,-480.69378 207.45021,-481.98395 0.15344,-0.18226 68.55206,27.78261 151.99676,62.14418 l 151.71769,62.47557 -1.81707,4.33415 c -19.17371,45.73313 -206.23158,477.56706 -206.84631,477.516727 -0.47597,-0.03899 -68.60261,-28.014637 -151.39293,-62.168057 z"
       id="path8"
       inkscape:label="fill"
       sodipodi:insensitive="true" />
    <path
       id="path6"
       d="m 676.17767,-591.51039 c -2.98243,-2.43956 -6.53034,-4.36874 -10.55744,-5.85023 L 369.43568,-722.06187 c -10.64404,-4.06283 -21.42951,-4.13527 -32.28878,-0.11384 -10.86417,4.01687 -18.21848,11.42785 -22.16434,22.17128 l -201.42577,478.84268 c -4.30433,11.12016 -4.58909,22.25631 -0.90251,33.36874 3.68167,11.10792 10.88792,18.56104 21.63171,22.51631 l 296.24185,124.754342 c 11.01551,4.407366 21.74128,4.237237 32.21076,-0.491298 10.4789,-4.728905 17.86444,-12.654515 22.15937,-23.774337 L 685.26115,-542.48506 c 4.30435,-11.12016 4.78552,-22.0741 1.4753,-32.83745 -2.06889,-6.7271 -5.58807,-12.12197 -10.55878,-16.18788 z m -26.75526,32.40503 -202.69674,480.327711 -296.24185,-124.754331 202.75401,-480.2746 z"
       style="display:inline"
       sodipodi:insensitive="true"
       inkscape:label="swatch" />
  </g>
  <g
     inkscape:groupmode="layer"
     id="layer4"
     inkscape:label="swatch_3"
     style="display:inline"
     inkscape:highlight-color="#80ba01"
     sodipodi:insensitive="true">
    <path
       style="display:inline;fill:#80ba01;fill-opacity:1;stroke-width:0;stroke-dasharray:none"
       d="m 626.57533,-116.98219 c -3.56356,-0.11465 -69.85012,-0.82381 -147.30293,-1.57923 -77.45286,-0.75543 -145.19708,-1.59193 -150.54275,-1.85889 l -9.71941,-0.48478 -0.0223,-9.17117 c -0.0497,-20.5181 6.29882,-522.37334 6.61259,-522.71345 0.37591,-0.4074 255.54791,2.2201 300.32684,3.09267 l 28.29425,0.55131 -0.007,13.42991 c -0.004,7.38645 -1.36149,122.50102 -3.01674,255.81019 -1.65524,133.30918 -3.01304,247.12674 -3.01674,252.92793 l -0.007,10.54764 -7.55952,-0.17196 c -4.15774,-0.0942 -10.47535,-0.26614 -14.03915,-0.38079 z"
       id="path9"
       inkscape:label="fill"
       sodipodi:insensitive="true" />
    <path
       id="path5"
       d="m 663.02548,-683.84934 c -3.68273,-1.13306 -7.69641,-1.58002 -11.9848,-1.43153 l -321.34458,-3.65391 c -11.39019,0.25629 -21.40485,4.26106 -29.94228,12.08461 -8.54369,7.82119 -12.55588,17.46022 -12.15375,28.89828 l -5.74135,519.45132 c 0.21242,11.92226 4.15299,22.34181 11.76203,31.240084 7.60281,8.895945 17.08956,13.076926 28.53151,12.683367 l 321.41769,3.681454 c 11.86424,-0.0775 21.73203,-4.284357 29.64156,-12.615522 7.91813,-8.335063 11.76495,-18.462433 11.54396,-30.380813 l 5.1899,-517.98935 c -0.21241,-11.92225 -3.90231,-22.24722 -11.03105,-30.96434 -4.45548,-5.4482 -9.75097,-9.11523 -15.88884,-11.00365 z m -12.54136,40.10791 -6.35761,521.3063 -321.41768,-3.68144 6.4307,-521.27874 z"
       style="display:inline"
       sodipodi:insensitive="true"
       inkscape:label="swatch" />
  </g>
  <g
     inkscape:groupmode="layer"
     id="layer2"
     inkscape:label="swatch_1"
     style="display:inline"
     inkscape:highlight-color="#02a4ef"
     sodipodi:insensitive="true">
    <path
       style="display:inline;fill:#02a4ef;fill-opacity:1;stroke:none;stroke-width:0;stroke-dasharray:none;stroke-opacity:1"
       d="m 503.42312,-156.37371 c -5.68055,-15.10549 -179.46945,-497.16125 -179.28716,-497.30674 0.53474,-0.42677 304.01222,-111.42324 304.64432,-111.42324 1.10249,0 180.69508,498.08997 179.85445,498.81621 -0.42703,0.36744 -67.17515,24.95341 -148.32891,54.632 -81.15376,29.67859 -149.48019,54.71411 -151.83654,55.63444 l -4.28424,1.6735 z"
       id="path10"
       inkscape:label="fill"
       sodipodi:insensitive="true" />
    <path
       id="path2"
       d="m 626.25,-801.95312 c -3.84563,0.23968 -7.75875,1.23812 -11.71875,2.89062 l -301.95313,110 c -10.56666,4.26 -18.52333,11.54167 -23.75,21.875 -5.23333,10.33333 -5.5852,20.76813 -1.17187,31.32812 L 465.625,-147.8125 c 4.40667,11.08 11.77125,19.43813 22.03125,25.07812 10.25333,5.64 20.60521,6.20355 31.17187,1.79688 l 302.03126,-110 c 11.07333,-4.26 18.82124,-11.67896 23.28124,-22.26562 4.46667,-10.59334 4.49146,-21.42667 0.0781,-32.5 L 666.25,-772.1875 c -4.40667,-11.08 -11.50333,-19.43812 -21.25,-25.07812 -6.09167,-3.52501 -12.34063,-5.08698 -18.75,-4.6875 z M 628.67188,-760 806.71875,-270 504.6875,-160 326.71875,-650 Z"
       style="display:inline"
       inkscape:label="swatch"
       sodipodi:insensitive="true" />
    <path
       id="path3"
       d="m 446.71875,-640 c -11.33333,0 -20.84896,3.81771 -28.51563,11.48438 -7.66666,7.66666 -11.48437,17.18229 -11.48437,28.51562 0,11.33333 3.81771,20.84896 11.48437,28.51562 7.66667,7.66667 17.1823,11.48438 28.51563,11.48438 11.33333,0 20.77083,-3.81771 28.4375,-11.48438 7.66667,-7.66666 11.5625,-17.18229 11.5625,-28.51562 0,-11.33333 -3.89583,-20.84896 -11.5625,-28.51562 C 467.48958,-636.18229 458.05208,-640 446.71875,-640 Z"
       style="display:inline"
       sodipodi:insensitive="true"
       inkscape:label="dot" />
  </g>
</svg>
